PathFileType	4	(X/Y/Z)	24_2_29_p1_0-243_filt_butterworth.trc
DataRate	CameraRate	NumFrames	NumMarkers	Units	OrigDataRate	OrigDataStartFrame	OrigNumFrames
60.0	60.0	7	27	m	60.0	151	243
Frame#	Time	RHip			RKnee			RAnkle			RBigToe			RSmallToe			RHeel			LHip			LKnee			LAnkle			LBigToe			LSmallToe			LHeel			Neck			Head			Nose			RShoulder			RElbow			RWrist			RThumb			RIndex			RPinky			LShoulder			LElbow			LWrist			LThumb			LIndex			LPinky			
		X1	Y1	Z1	X2	Y2	Z2	X3	Y3	Z3	X4	Y4	Z4	X5	Y5	Z5	X6	Y6	Z6	X7	Y7	Z7	X8	Y8	Z8	X9	Y9	Z9	X10	Y10	Z10	X11	Y11	Z11	X12	Y12	Z12	X13	Y13	Z13	X14	Y14	Z14	X15	Y15	Z15	X16	Y16	Z16	X17	Y17	Z17	X18	Y18	Z18	X19	Y19	Z19	X20	Y20	Z20	X21	Y21	Z21	X22	Y22	Z22	X23	Y23	Z23	X24	Y24	Z24	X25	Y25	Z25	X26	Y26	Z26	X27	Y27	Z27	
151	2.5166666666666666	0.38898288308635853	0.5279100650520866	0.7807409724920613	0.40667625897193893	0.5460527259623892	1.2419826845247766	0.40374026535465557	0.5911700670798444	1.670623293978621	0.41518975320196605	0.542649862813943	1.7228116722484503	0.47247613208981576	0.5282105577468149	1.7009236659473215	0.39386189713187175	0.6258127990362518	1.713617046602494	0.18960339195327922	0.5379117554635915	0.7852683863148735	0.18647758713002538	0.5602205822112098	1.2480166879178336	0.1974900515028288	0.667775446968712	1.7034459200898655	0.24279409866328622	0.4608060569090354	1.6975083344763433	0.18524161940948336	0.5187480428254345	1.7157129775471704	0.20319766733165512	0.7085806439367849	1.753585824111346	0.30910589410121136	0.46653530988360736	0.2731254228644749	0.31567617550227256	0.3929448881915801	0.047814339210086064	0.31217476572251995	0.3252893312172197	0.15779968665291688	0.45804752766300544	0.4880995606001403	0.37435918539863977	0.49442628247238085	0.5805511466276823	0.6421373256365086	0.5040893510722606	0.5429337182090761	0.9063582001647907	0.48423877254393394	0.4989412070014677	0.9988573221245385	0.4928037261867525	0.5145849931619265	1.014391444225928	0.5106610585522569	0.5481581978780365	1.0158593305545867	0.16723850449783004	0.49026659474849865	0.37068446645636194	0.10094595846960255	0.4957493560816612	0.6329222767329193	0.09148543401300946	0.4968730818730358	0.8838356698949825	0.13114373020862277	0.4614822353874657	0.9767841487544593	0.0970026012648336	0.4991894781865071	1.016874607442473	0.08054475219136378	0.49802062276652787	1.0072923923931083
152	2.533333333333333	0.38897553818292996	0.5279589713013891	0.7807575781142589	0.40639217900515795	0.5464282106559716	1.2437651085608772	0.4039030679971297	0.5907766774553501	1.6717583173859278	0.41587997316231523	0.542435938263662	1.7231547071664015	0.47279664841977154	0.5288144753473076	1.7021281891125157	0.39418550957406245	0.6261838074052841	1.7152793315285813	0.18961003958960104	0.5378659623611182	0.7852397649045655	0.18648285650342458	0.5602644077603421	1.247987526504088	0.19746862946466048	0.667275157150934	1.7031920429581078	0.24313284675773966	0.46043010248794897	1.6963208883269623	0.18522964998021493	0.5187379080423951	1.7156733605102463	0.2030468786181397	0.7086721924525733	1.753626524341137	0.3091069530655874	0.4667349143766467	0.27315278115534103	0.3175138035759911	0.38996971345478343	0.04799016169369627	0.31271638172466093	0.32410018554265885	0.15859175537464254	0.45804620916281213	0.48806589662693467	0.3742762877922271	0.4944455939987996	0.5805134170535889	0.6425469216908799	0.5030664217627115	0.543046687570312	0.9064093243044905	0.4842469137541194	0.499055184268282	0.9988455546310773	0.4928318043717531	0.5145942812228917	1.01432155557098	0.5106505459028466	0.5481867722062213	1.0166693344597313	0.16714801300647664	0.4904870174121361	0.3706747362223477	0.10094703353901788	0.4957567197042901	0.6330205091841266	0.09137021099282865	0.49683851872060275	0.8824329928151057	0.13155000036607295	0.4607259084336706	0.9766095776218868	0.0973271244838963	0.49855999443739424	1.0164111915959477	0.08010378201745308	0.49609215171202864	1.007247697073171
153	2.55	0.38900203282087	0.5281555129116831	0.7807590761632013	0.4064208351084758	0.5470655852664044	1.2450751660923518	0.4041111948481036	0.5904931322275542	1.6720735254374748	0.4161452155715763	0.5423530491813913	1.7246222523167711	0.47306478845579386	0.5316387470398491	1.70452298599992	0.39386715814469453	0.6270372459456015	1.7174635276525922	0.18960066657683938	0.537988121735341	0.7848525020035322	0.18651858420736564	0.5601811224945099	1.2479627973191958	0.1974336608152546	0.6662648246930161	1.7026277948753976	0.24357007063716285	0.4600240551204062	1.6946694816298875	0.1851723410937837	0.5187863671022246	1.715587326995945	0.2030406163988413	0.7087588868599386	1.753277759250659	0.30892651432201784	0.4670214459505227	0.2732224575756348	0.3183804347501106	0.3889478394846133	0.048059165741515676	0.3139559166937952	0.32126651884038226	0.15980364836116162	0.4580646334588486	0.4879670155532021	0.3741974061919915	0.4945573274173402	0.5801928114515722	0.6425488428036651	0.5016443990492366	0.544725135694089	0.9068797506920356	0.4844887124345988	0.5003674748396569	0.999086514136917	0.4928430210105538	0.5146701165134763	1.0142944659091042	0.5107242933951004	0.5497474011381948	1.017882963851261	0.16649943012145782	0.49184551690220013	0.3707264269930145	0.10093189591917132	0.4957815337465912	0.6331329564151674	0.09131513403086547	0.49689224022711	0.8820559697065631	0.1317951043173629	0.4602331222899185	0.9766346744149389	0.0973456726380389	0.4985148160138362	1.0164045009735094	0.07884781911217999	0.4950729848757974	1.0080545164726356
154	2.566666666666667	0.3890452257288567	0.5284586502897812	0.7807550202968109	0.4068618563857135	0.5479760585942811	1.2457983053439659	0.40415391316908245	0.59074321571492	1.6716148914095614	0.41636789207458924	0.5427052284252458	1.7272598805911346	0.4731333288709624	0.5383941213197975	1.708758451461834	0.3922844661214096	0.6280350792482579	1.7194459220230724	0.18955025480623935	0.5383737836859417	0.7838895706291796	0.18655406316012652	0.5600814703329539	1.2479417157609898	0.19740630230405562	0.6652643471254205	1.7019399603933332	0.2438772871329301	0.45981218301228133	1.6934495802522984	0.18503476070846225	0.5190182233043311	1.715228752808386	0.2036034390825505	0.70876381083703	1.7521802945380627	0.30831004643066307	0.46831779812545093	0.27334093768574935	0.3193082948815905	0.3894389354831372	0.04802231439580558	0.316040520176765	0.317664147840032	0.16105538173696307	0.4581572431558404	0.4878048298578118	0.3741823570170558	0.4946133584562999	0.5800282247101535	0.6424866503193523	0.5002806390789093	0.5487311162234099	0.9079125657653239	0.4850951168811628	0.5034209922588992	0.9996754976183128	0.4928353481459775	0.514753753854797	1.0142912866659928	0.5109543818154209	0.5538472910218273	1.0194677014568145	0.1649180906607246	0.4951016170291978	0.37087314236704416	0.10091397544617142	0.4958137182627331	0.6332190803467517	0.09130690171279233	0.4969278926778942	0.8821601273072952	0.13186503722322035	0.46011932134194355	0.9766107689163466	0.09725518098447125	0.4987096018717279	1.0165079504707406	0.07783509382414518	0.4944851312488936	1.0084656901878717
155	2.583333333333333	0.38901271278916266	0.5284366970647619	0.780692221425726	0.4074376791295944	0.5488335988207864	1.2462304307443701	0.4039465667655471	0.5909874648779974	1.6699817698203945	0.4164857754383591	0.5437225129784374	1.729992901747071	0.47229442782760245	0.5473814248724513	1.7136110675253367	0.38979240047177943	0.6288063182028883	1.720687176986338	0.18942783007422917	0.5388899280407563	0.7825673248664714	0.18658067139573783	0.5600255706141992	1.2479110298032667	0.1974030767696053	0.6649461660875625	1.7012736096043874	0.24395548667984926	0.45977872588360474	1.692991889339866	0.18483055535576384	0.5194666313237711	1.7143681245132267	0.20478582308737467	0.7084834783067037	1.7504577712969296	0.3069311203761579	0.4714262752035934	0.2734921997503117	0.3205471442573614	0.39041066331620694	0.04794682245238913	0.31836498899823457	0.3151730177936587	0.1622285074269983	0.45831511493263416	0.487686366647755	0.3742787140318111	0.49460380021872713	0.5800040457320009	0.6424835322397784	0.49904514312088427	0.5537668948400425	0.9091946277173256	0.4858861798035586	0.5073356351667055	1.0004386542476964	0.4928000048175121	0.5148322816616844	1.0142906367810767	0.5111522670056676	0.5594929497326615	1.0211569200480983	0.16283625232288085	0.4993611071575655	0.3710794815245352	0.10092153986767043	0.49582345298346264	0.6332489477041859	0.09131973973392281	0.4969098028889385	0.8823076362669459	0.13180365826320273	0.4603222106429667	0.9761992957968266	0.09716755242541582	0.4989161864653965	1.016558476726958	0.0776043249543554	0.4944855264488942	1.0079715542167436
156	2.6	0.3887294999138793	0.5271153493664156	0.7804202077663982	0.4077540496653466	0.5492724022685975	1.2461974707824697	0.40342086464876437	0.5899251383331569	1.6671988309701558	0.4162692446049519	0.5453020657318342	1.7317961497047332	0.4705288998204791	0.5537905197189075	1.7171254560642883	0.38762286979446275	0.6292208235439699	1.7212383742120598	0.1891725353205183	0.5389519401649524	0.7813418662586411	0.1865907295647189	0.56001585355505	1.2478703210320956	0.19742963335560645	0.6651207993759048	1.7004129772079362	0.24384960492626337	0.459707958898008	1.6930509729392196	0.18467429507758176	0.5198744818946639	1.7131855827152789	0.20587992375713393	0.7077894492987257	1.748779793519608	0.30512502626644	0.47552943972594536	0.2736105537074139	0.3215746702625365	0.3911098101373595	0.04789343994560735	0.32022019535649837	0.31453494507135826	0.16337061389811963	0.45832647515838043	0.48801357229062886	0.37453830493362866	0.4945701261253187	0.5799944754686615	0.6424992083939631	0.4976699798266753	0.5571851020398954	0.9101289894403576	0.4864859227022621	0.5102739064709311	1.0010139042842152	0.49275733857356796	0.514877051334525	1.0142746681674837	0.510922537681616	0.5640652679926816	1.0224010801699843	0.16124946920057737	0.502596549959101	0.3712457849679328	0.10095816133924553	0.495795074755393	0.6332222883988647	0.09133658892121693	0.4968463788810416	0.8823595692231311	0.13164437847611457	0.4607410917318707	0.9751864613349113	0.09711232305341949	0.49904192879066245	1.0165480883767617	0.07782178137850979	0.4956205510121025	1.0070786486442604
157	2.6166666666666667	0.3880924850856364	0.5237356584187792	0.779832566864859	0.407742274394475	0.5493637413006321	1.2448030824129097	0.4025923717962546	0.5866569999152239	1.66432691559443	0.4155195914810795	0.547578321502724	1.7327158376772982	0.46889957787763703	0.5548593210943158	1.718485577968122	0.3866042037547655	0.6293065772434749	1.7213715950864499	0.18873773600801047	0.5375292741747444	0.7803308465548094	0.1865862277051897	0.5600122888578315	1.2478271546299906	0.19748562435778136	0.6651725931861174	1.6993753875257143	0.24362615324545622	0.4595525564470595	1.6934280263191765	0.18465623603294948	0.5199843943279026	1.7122293139337197	0.2060056540155581	0.7072364658762832	1.7479269298797742	0.3037335524730508	0.47868753464029246	0.27364631001467676	0.3220417572281064	0.391339401439807	0.047877496610609645	0.32123219083786486	0.3148972498538438	0.16449234459717493	0.457770525664155	0.4895995444396029	0.37499583933784164	0.494556775304772	0.5799527630531991	0.642448557952987	0.4962426855766048	0.5579661798289439	0.9104578605231674	0.48672882271864903	0.5114317344809408	1.0012399322772827	0.49273256062764853	0.5148848603696673	1.0142481957806129	0.5101959081100214	0.5660716011617429	1.0231751318729532	0.16061593030996388	0.5038907554013217	0.3713121953169879	0.10099947036657204	0.4957042656430799	0.6331812981370272	0.09134799484209682	0.49676658757332826	0.8823386846776187	0.13142844353055338	0.46122668098996145	0.9738551458448368	0.09707352374486489	0.4990853338814998	1.0165273993221255	0.07799923319786269	0.4979556509220348	1.0063466559788175
